<?xml version="1.0" ?><!DOCTYPE svg  PUBLIC '-//W3C//DTD SVG 1.1//EN'  'http://www.w3.org/Graphics/SVG/1.1/DTD/svg11.dtd'><svg height="8.4666mm" style="shape-rendering:geometricPrecision; text-rendering:geometricPrecision; image-rendering:optimizeQuality; fill-rule:evenodd; clip-rule:evenodd" version="1.1" viewBox="0 0 846.66 846.66" width="8.4666mm" xml:space="preserve" xmlns="http://www.w3.org/2000/svg" xmlns:xlink="http://www.w3.org/1999/xlink"><defs><style type="text/css">
   <![CDATA[
    .fil0 {fill:black;fill-rule:nonzero}
   ]]>
  </style></defs><g id="Layer_x0020_1"><path class="fil0" d="M186.66 558.66l134.9 0c11.39,0 20.63,9.24 20.63,20.63l0 235.89c0,11.39 -9.24,20.63 -20.63,20.63l-134.9 0c-11.4,0 -20.63,-9.24 -20.63,-20.63l0 -235.89c0,-11.39 9.23,-20.63 20.63,-20.63zm34.15 -527.46c0,-27.13 41.26,-27.13 41.26,0l0 23.94 69.27 0c27.14,0 27.14,41.26 0,41.26l-69.27 0 0 93.97 24.71 0c48.58,0 88.25,39.67 88.25,88.25 0,48.57 -39.67,88.24 -88.25,88.24l-24.71 0 0 23.94c0,27.13 -41.26,27.13 -41.26,0l0 -23.94 -69.26 0c-27.14,0 -27.14,-41.26 0,-41.26l69.26 0 0 -93.97 -24.7 0c-48.58,0 -88.25,-39.67 -88.25,-88.25 0,-48.58 39.67,-88.24 88.25,-88.24l24.7 0 0 -23.94zm41.26 200.43l0 93.97 24.71 0c25.79,0 46.99,-21.19 46.99,-46.98 0,-25.8 -21.2,-46.99 -46.99,-46.99l-24.71 0zm-41.26 -41.26l0 -93.97 -24.7 0c-25.8,0 -46.99,21.19 -46.99,46.98 0,25.8 21.19,46.99 46.99,46.99l24.7 0zm362.46 -10.99l134.9 0c11.39,0 20.63,9.24 20.63,20.63l0 615.17c0,11.39 -9.24,20.63 -20.63,20.63l-134.9 0c-11.4,0 -20.63,-9.24 -20.63,-20.63l0 -615.17c0,-11.39 9.23,-20.63 20.63,-20.63zm114.27 41.26l-93.64 0 0 573.91 93.64 0 0 -573.91zm-312.58 159.94l134.9 0c11.4,0 20.63,9.24 20.63,20.63l0 413.97c0,11.39 -9.23,20.63 -20.63,20.63l-134.9 0c-11.39,0 -20.63,-9.24 -20.63,-20.63l0 -413.97c0,-11.39 9.24,-20.63 20.63,-20.63zm114.27 41.26l-93.64 0 0 372.71 93.64 0 0 -372.71zm-198.3 178.08l-93.64 0 0 194.63 93.64 0 0 -194.63z"/></g></svg>